<svg id="Layer_1" data-name="Layer 1" xmlns="http://www.w3.org/2000/svg" viewBox="0 0 33.1 8.51"><defs><style>.cls-1{fill:#fff;}.cls-2{fill:#d6e2f6;}.cls-3{fill:#92b8fa;}.cls-4{fill:#006cff;}</style></defs><title>dapploy_logo_blend_white</title><path class="cls-1" d="M15.59,10.92v-.48h-.47V10h-.48V7.11h.48V6.63h.47V6.15H17.5v.48H18V4.24h.95v6.68H18v-.48H17.5v.48Z" transform="translate(-14.64 -4.24)"/><polygon class="cls-2" points="2.73 5.9 2.73 5.37 3.27 5.37 3.27 3.23 2.73 3.23 2.73 2.7 1.13 2.7 1.13 3.23 0.6 3.23 0.6 5.37 1.13 5.37 1.13 5.9 2.73 5.9"/><rect class="cls-3" x="1.13" y="2.7" width="0.53" height="1.07"/><rect class="cls-3" x="2.2" y="2.7" width="0.53" height="1.07"/><rect class="cls-3" x="0.6" y="3.23" width="0.53" height="1.07"/><rect class="cls-3" x="2.73" y="3.23" width="0.53" height="1.07"/><rect class="cls-4" x="1.66" y="3.23" width="0.53" height="0.53"/><rect class="cls-4" x="0.6" y="4.83" width="1.07" height="0.53"/><rect class="cls-3" x="1.66" y="4.83" width="0.53" height="0.53"/><rect class="cls-4" x="1.66" y="5.37" width="0.53" height="0.53"/><rect class="cls-4" x="1.13" y="4.3" width="0.53" height="0.53"/><rect class="cls-4" x="2.2" y="4.83" width="1.07" height="0.53"/><rect class="cls-4" x="2.2" y="4.3" width="0.53" height="0.53"/><path class="cls-1" d="M25.67,10.92H24.42l-.64-1.77H21.14l-.64,1.77H19.29l2.58-6.68h1.24Zm-3.2-5.48-1,2.84h2Z" transform="translate(-14.64 -4.24)"/><path class="cls-1" d="M27,6.74A1.76,1.76,0,0,1,28.58,6a2.26,2.26,0,0,1,2.2,2.55c0,1.55-.82,2.54-2.13,2.54a1.79,1.79,0,0,1-1.58-.75v2.42H26V6.09h1ZM27,8.5c0,1.06.51,1.69,1.36,1.69s1.33-.63,1.33-1.71-.54-1.66-1.36-1.66S27,7.46,27,8.5Z" transform="translate(-14.64 -4.24)"/><path class="cls-1" d="M32.28,6.74A1.76,1.76,0,0,1,33.85,6a2.26,2.26,0,0,1,2.2,2.55c0,1.55-.83,2.54-2.13,2.54a1.79,1.79,0,0,1-1.58-.75v2.42H31.28V6.09h1Zm0,1.76c0,1.06.51,1.69,1.36,1.69S35,9.56,35,8.48s-.54-1.66-1.35-1.66S32.3,7.46,32.3,8.5Z" transform="translate(-14.64 -4.24)"/><path class="cls-1" d="M37.61,10.92H36.55V4.26h1.06Z" transform="translate(-14.64 -4.24)"/><path class="cls-1" d="M43,8.52a2.32,2.32,0,0,1-2.42,2.55,2.35,2.35,0,0,1-2.45-2.55A2.35,2.35,0,0,1,40.52,6,2.32,2.32,0,0,1,43,8.52Zm-3.79,0c0,1.06.51,1.71,1.37,1.71s1.35-.65,1.35-1.71-.5-1.73-1.36-1.73S39.17,7.45,39.17,8.52Z" transform="translate(-14.64 -4.24)"/><path class="cls-1" d="M46,10.83a4.8,4.8,0,0,1-.68,1.44,1.31,1.31,0,0,1-1.12.49,5.88,5.88,0,0,1-.73,0v-.9a3.36,3.36,0,0,0,.5.06.57.57,0,0,0,.6-.35,2.81,2.81,0,0,0,.27-.76L43,6.09h1.17L45.4,9.73l1.22-3.64h1.12Z" transform="translate(-14.64 -4.24)"/></svg>