<svg id="Layer_1" data-name="Layer 1" xmlns="http://www.w3.org/2000/svg" viewBox="0 0 59.73 8.59"><defs><style>.cls-1{fill:#20221e;}.cls-2{fill:#d6e2f6;}.cls-3{fill:#92b8fa;}.cls-4{fill:#006cff;}</style></defs><title>dapploy_docs_logo_blend_Black</title><path class="cls-1" d="M15.59,10.92v-.48h-.47V10h-.48V7.11h.48V6.63h.47V6.15H17.5v.48H18V4.24h.95v6.68H18v-.48H17.5v.48Z" transform="translate(-14.64 -4.24)"/><polygon class="cls-2" points="2.73 5.9 2.73 5.37 3.27 5.37 3.27 3.23 2.73 3.23 2.73 2.7 1.13 2.7 1.13 3.23 0.6 3.23 0.6 5.37 1.13 5.37 1.13 5.9 2.73 5.9"/><rect class="cls-3" x="1.13" y="2.7" width="0.53" height="1.07"/><rect class="cls-3" x="2.2" y="2.7" width="0.53" height="1.07"/><rect class="cls-3" x="0.6" y="3.23" width="0.53" height="1.07"/><rect class="cls-3" x="2.73" y="3.23" width="0.53" height="1.07"/><rect class="cls-4" x="1.66" y="3.23" width="0.53" height="0.53"/><rect class="cls-4" x="0.6" y="4.83" width="1.07" height="0.53"/><rect class="cls-3" x="1.66" y="4.83" width="0.53" height="0.53"/><rect class="cls-4" x="1.66" y="5.37" width="0.53" height="0.53"/><rect class="cls-4" x="1.13" y="4.3" width="0.53" height="0.53"/><rect class="cls-4" x="2.2" y="4.83" width="1.07" height="0.53"/><rect class="cls-4" x="2.2" y="4.3" width="0.53" height="0.53"/><path class="cls-1" d="M21.85,4.24H23.1l2.57,6.68H24.42l-.63-1.77H21.12l-.62,1.77H19.29Zm-.41,4h2l-1-2.87h0Z" transform="translate(-14.64 -4.24)"/><path class="cls-1" d="M26.18,6.09h1v.65h0a1.31,1.31,0,0,1,.63-.6A2.13,2.13,0,0,1,28.71,6a2.26,2.26,0,0,1,1,.21,1.89,1.89,0,0,1,.7.55,2.2,2.2,0,0,1,.42.82,3.22,3.22,0,0,1,.14,1,3.67,3.67,0,0,1-.12.94,2.54,2.54,0,0,1-.39.81,2,2,0,0,1-.65.56,1.92,1.92,0,0,1-.92.21,2.49,2.49,0,0,1-.47,0,1.69,1.69,0,0,1-.45-.14,1.63,1.63,0,0,1-.4-.24,1.22,1.22,0,0,1-.3-.34h0v2.42H26.18Zm3.73,2.42a2.3,2.3,0,0,0-.09-.64,1.72,1.72,0,0,0-.25-.55,1.4,1.4,0,0,0-.42-.38,1.11,1.11,0,0,0-.58-.14,1.19,1.19,0,0,0-1,.46,2.15,2.15,0,0,0-.34,1.25,2.48,2.48,0,0,0,.09.68,1.56,1.56,0,0,0,.27.53,1.44,1.44,0,0,0,.42.36,1.36,1.36,0,0,0,1.2,0,1.38,1.38,0,0,0,.41-.39,1.65,1.65,0,0,0,.24-.54A3.18,3.18,0,0,0,29.91,8.51Z" transform="translate(-14.64 -4.24)"/><path class="cls-1" d="M31.9,6.09h1v.65h0a1.33,1.33,0,0,1,.62-.6A2.13,2.13,0,0,1,34.42,6a2.26,2.26,0,0,1,1,.21,1.81,1.81,0,0,1,.7.55,2.37,2.37,0,0,1,.43.82,3.55,3.55,0,0,1,.14,1,3.68,3.68,0,0,1-.13.94,2.33,2.33,0,0,1-.38.81,2.06,2.06,0,0,1-.65.56,2,2,0,0,1-.93.21,2.49,2.49,0,0,1-.47,0,1.94,1.94,0,0,1-.45-.14,1.58,1.58,0,0,1-.39-.24,1.26,1.26,0,0,1-.31-.34h0v2.42H31.9Zm3.72,2.42a2.74,2.74,0,0,0-.08-.64,1.74,1.74,0,0,0-.26-.55,1.4,1.4,0,0,0-.42-.38,1.11,1.11,0,0,0-.58-.14,1.17,1.17,0,0,0-1,.46,2.08,2.08,0,0,0-.34,1.25,2.48,2.48,0,0,0,.09.68,1.38,1.38,0,0,0,.26.53,1.36,1.36,0,0,0,.43.36,1.14,1.14,0,0,0,.57.13,1.19,1.19,0,0,0,.62-.15,1.31,1.31,0,0,0,.42-.39,1.87,1.87,0,0,0,.23-.54A2.56,2.56,0,0,0,35.62,8.51Z" transform="translate(-14.64 -4.24)"/><path class="cls-1" d="M37.61,4.24h1.07v6.68H37.61Z" transform="translate(-14.64 -4.24)"/><path class="cls-1" d="M42.05,11.05a2.59,2.59,0,0,1-1-.19,2.15,2.15,0,0,1-1.24-1.33,3.13,3.13,0,0,1-.17-1,3,3,0,0,1,.17-1,2.33,2.33,0,0,1,.47-.81A2.18,2.18,0,0,1,41,6.15a2.78,2.78,0,0,1,2.07,0,2.06,2.06,0,0,1,.76.52,2.35,2.35,0,0,1,.48.81,3,3,0,0,1,.17,1,3.13,3.13,0,0,1-.17,1,2.22,2.22,0,0,1-.48.8,2.08,2.08,0,0,1-.76.53A2.61,2.61,0,0,1,42.05,11.05Zm0-.84a1.21,1.21,0,0,0,.62-.15,1.24,1.24,0,0,0,.43-.39,1.83,1.83,0,0,0,.25-.55,2.57,2.57,0,0,0,.08-.62,2.64,2.64,0,0,0-.08-.62,1.72,1.72,0,0,0-.25-.55,1.26,1.26,0,0,0-1.05-.53,1.2,1.2,0,0,0-.61.15,1.22,1.22,0,0,0-.43.38,1.53,1.53,0,0,0-.25.55,2.64,2.64,0,0,0-.08.62,2.57,2.57,0,0,0,.08.62,1.61,1.61,0,0,0,.25.55,1.24,1.24,0,0,0,.43.39A1.2,1.2,0,0,0,42.05,10.21Z" transform="translate(-14.64 -4.24)"/><path class="cls-1" d="M44.85,6.09H46L47.28,9.7h0l1.22-3.61h1.12l-1.88,5.09-.26.63a2.31,2.31,0,0,1-.31.53,1.33,1.33,0,0,1-.45.36,1.54,1.54,0,0,1-.69.14,4.52,4.52,0,0,1-.74-.06v-.9l.25,0a1.07,1.07,0,0,0,.25,0,.87.87,0,0,0,.31,0,.46.46,0,0,0,.2-.13.77.77,0,0,0,.14-.21,2.31,2.31,0,0,0,.1-.28l.12-.38Z" transform="translate(-14.64 -4.24)"/><path class="cls-1" d="M53,4.24h2.76a3.15,3.15,0,0,1,1.33.26,2.55,2.55,0,0,1,.92.72,3.11,3.11,0,0,1,.53,1.06,5,5,0,0,1,.17,1.3,4.92,4.92,0,0,1-.17,1.3A3,3,0,0,1,58,9.94a2.45,2.45,0,0,1-.92.72,3.15,3.15,0,0,1-1.33.26H53ZM54.16,10h1.15a2.73,2.73,0,0,0,1.11-.19,1.71,1.71,0,0,0,.69-.5,1.93,1.93,0,0,0,.33-.76,4.62,4.62,0,0,0,.09-.94,4.69,4.69,0,0,0-.09-.94,1.93,1.93,0,0,0-.33-.76,1.71,1.71,0,0,0-.69-.5,2.93,2.93,0,0,0-1.11-.18H54.16Z" transform="translate(-14.64 -4.24)"/><path class="cls-1" d="M61.8,11.05a2.59,2.59,0,0,1-1-.19,2.21,2.21,0,0,1-.77-.53,2.35,2.35,0,0,1-.47-.8,3.13,3.13,0,0,1-.17-1,3,3,0,0,1,.17-1A2.5,2.5,0,0,1,60,6.67a2.18,2.18,0,0,1,.77-.52,2.78,2.78,0,0,1,2.07,0,2.18,2.18,0,0,1,.77.52,2.5,2.5,0,0,1,.47.81,3,3,0,0,1,.17,1,3.13,3.13,0,0,1-.17,1,2.35,2.35,0,0,1-.47.8,2.21,2.21,0,0,1-.77.53A2.61,2.61,0,0,1,61.8,11.05Zm0-.84a1.21,1.21,0,0,0,.62-.15,1.24,1.24,0,0,0,.43-.39,1.83,1.83,0,0,0,.25-.55,2.57,2.57,0,0,0,.08-.62,2.64,2.64,0,0,0-.08-.62,1.72,1.72,0,0,0-.25-.55A1.26,1.26,0,0,0,61.8,6.8a1.2,1.2,0,0,0-.61.15,1.22,1.22,0,0,0-.43.38,1.72,1.72,0,0,0-.25.55,2.64,2.64,0,0,0-.08.62,2.57,2.57,0,0,0,.08.62,1.83,1.83,0,0,0,.25.55,1.24,1.24,0,0,0,.43.39A1.2,1.2,0,0,0,61.8,10.21Z" transform="translate(-14.64 -4.24)"/><path class="cls-1" d="M68.4,7.7A1,1,0,0,0,68,7a1.16,1.16,0,0,0-.75-.23,1.48,1.48,0,0,0-.44.07,1,1,0,0,0-.43.26,1.36,1.36,0,0,0-.32.53,2.5,2.5,0,0,0-.13.89,2.46,2.46,0,0,0,.07.6,1.62,1.62,0,0,0,.22.54,1.18,1.18,0,0,0,.4.37,1.1,1.1,0,0,0,.59.15A1.08,1.08,0,0,0,68,9.92a1.34,1.34,0,0,0,.38-.81h1.06a2.35,2.35,0,0,1-.71,1.44,2.21,2.21,0,0,1-1.5.5,2.46,2.46,0,0,1-1-.19,2.05,2.05,0,0,1-.73-.53,2.29,2.29,0,0,1-.46-.79,3.12,3.12,0,0,1-.15-1,3.29,3.29,0,0,1,.15-1,2.29,2.29,0,0,1,.45-.83,2,2,0,0,1,.74-.55,2.41,2.41,0,0,1,1-.21,3,3,0,0,1,.8.11,2.13,2.13,0,0,1,.68.32,2,2,0,0,1,.48.55,1.83,1.83,0,0,1,.22.77Z" transform="translate(-14.64 -4.24)"/><path class="cls-1" d="M71.14,9.37a.8.8,0,0,0,.35.65,1.38,1.38,0,0,0,.74.19l.34,0a1.9,1.9,0,0,0,.36-.09.73.73,0,0,0,.28-.19.53.53,0,0,0,.1-.34.49.49,0,0,0-.15-.33A1.07,1.07,0,0,0,72.8,9a3.29,3.29,0,0,0-.5-.14l-.57-.12a5.5,5.5,0,0,1-.58-.16,1.88,1.88,0,0,1-.49-.25A1.07,1.07,0,0,1,70.31,8a1.25,1.25,0,0,1-.14-.61,1.1,1.1,0,0,1,.2-.66,1.42,1.42,0,0,1,.48-.43A2.07,2.07,0,0,1,71.51,6,4.24,4.24,0,0,1,72.19,6a3.38,3.38,0,0,1,.72.08,2.14,2.14,0,0,1,.62.26,1.68,1.68,0,0,1,.46.46,1.61,1.61,0,0,1,.22.69H73.1a.66.66,0,0,0-.35-.51,1.39,1.39,0,0,0-.63-.13h-.27a1.38,1.38,0,0,0-.29.08.68.68,0,0,0-.23.14.39.39,0,0,0-.09.26.42.42,0,0,0,.14.32,1,1,0,0,0,.35.2,4.39,4.39,0,0,0,.5.14l.58.12a5.32,5.32,0,0,1,.57.16,1.56,1.56,0,0,1,.5.25,1.25,1.25,0,0,1,.36.4,1.21,1.21,0,0,1,.13.6,1.3,1.3,0,0,1-.19.73,1.59,1.59,0,0,1-.51.49A2.55,2.55,0,0,1,73,11a4,4,0,0,1-.76.08,3.22,3.22,0,0,1-.84-.1,1.86,1.86,0,0,1-.68-.32,1.38,1.38,0,0,1-.44-.52,1.72,1.72,0,0,1-.18-.74Z" transform="translate(-14.64 -4.24)"/></svg>